<?xml version="1.0" standalone="no"?>
<!DOCTYPE svg PUBLIC "-//W3C//DTD SVG 20010904//EN"
 "http://www.w3.org/TR/2001/REC-SVG-20010904/DTD/svg10.dtd">
<svg version="1.0" xmlns="http://www.w3.org/2000/svg"
 width="1003.000000pt" height="1003.000000pt" viewBox="0 0 1003.000000 1003.000000"
 preserveAspectRatio="xMidYMid meet">
<metadata>
Created by potrace 1.14, written by Peter Selinger 2001-2017
</metadata>
<g transform="translate(0.000000,1003.000000) scale(0.100000,-0.100000)"
fill="#000000" stroke="none">
<path d="M4710 10014 c-19 -2 -91 -9 -160 -14 -598 -51 -1254 -240 -1805 -520
-778 -396 -1442 -991 -1921 -1720 -1156 -1760 -1087 -4057 173 -5745 747
-1001 1838 -1686 3065 -1925 1274 -247 2608 16 3693 727 555 364 1051 854
1420 1403 449 668 721 1415 822 2255 26 216 26 854 0 1070 -77 644 -237 1181
-518 1735 -173 343 -375 648 -630 955 -113 136 -387 414 -535 544 -823 722
-1848 1150 -2949 1231 -127 9 -569 12 -655 4z m555 -404 c517 -31 998 -137
1460 -322 1365 -547 2404 -1736 2755 -3152 215 -870 182 -1742 -100 -2586 -83
-249 -146 -401 -260 -625 -223 -438 -490 -805 -850 -1166 -286 -286 -561 -503
-890 -701 -1416 -852 -3217 -871 -4648 -50 -1147 658 -1959 1771 -2226 3049
-69 334 -96 601 -96 962 0 256 9 394 41 625 179 1312 922 2486 2039 3221 817
537 1805 802 2775 745z"/>
<path d="M3070 5010 l0 -2650 1128 0 c699 0 1171 4 1242 10 545 50 1001 215
1380 501 487 367 801 932 899 1614 63 435 44 925 -51 1320 -147 613 -472 1095
-960 1421 -300 202 -672 338 -1106 406 -134 21 -166 22 -1334 25 l-1198 4 0
-2651z m2313 1396 c309 -60 517 -171 654 -351 130 -171 204 -380 244 -690 19
-150 17 -589 -5 -745 -45 -334 -134 -552 -294 -722 -140 -148 -293 -225 -560
-279 -97 -20 -144 -23 -504 -27 l-398 -4 0 1422 0 1422 388 -5 c310 -3 405 -7
475 -21z"/>
</g>
</svg>
