<?xml version="1.0" standalone="no"?>
<!DOCTYPE svg PUBLIC "-//W3C//DTD SVG 20010904//EN"
 "http://www.w3.org/TR/2001/REC-SVG-20010904/DTD/svg10.dtd">
<svg version="1.0" xmlns="http://www.w3.org/2000/svg"
 width="1003.000000pt" height="1003.000000pt" viewBox="0 0 1003.000000 1003.000000"
 preserveAspectRatio="xMidYMid meet">
<metadata>
Created by potrace 1.14, written by Peter Selinger 2001-2017
</metadata>
<g transform="translate(0.000000,1003.000000) scale(0.100000,-0.100000)"
fill="#000000" stroke="none">
<path d="M4665 10014 c-379 -38 -587 -70 -828 -128 -753 -182 -1430 -525
-2047 -1036 -148 -122 -482 -454 -599 -595 -693 -835 -1081 -1776 -1171 -2840
-13 -155 -13 -645 0 -800 93 -1095 507 -2073 1229 -2905 758 -872 1844 -1469
2991 -1644 298 -45 387 -51 775 -51 378 0 474 6 745 46 2114 315 3802 1953
4184 4060 58 317 70 473 70 894 0 422 -12 578 -70 894 -378 2077 -2020 3699
-4094 4045 -296 50 -404 58 -785 61 -198 2 -378 1 -400 -1z m875 -418 c937
-120 1743 -469 2455 -1065 116 -97 439 -420 536 -536 306 -366 554 -770 734
-1196 123 -290 238 -683 289 -989 53 -313 61 -411 61 -795 0 -384 -8 -482 -61
-795 -84 -501 -277 -1036 -536 -1490 -100 -175 -279 -436 -414 -605 -137 -171
-454 -497 -609 -627 -730 -609 -1578 -969 -2520 -1070 -163 -18 -771 -17 -930
0 -766 85 -1478 343 -2102 763 -246 165 -431 316 -652 533 -188 185 -311 324
-455 516 -449 596 -739 1266 -865 1995 -49 291 -56 381 -56 780 0 399 7 489
56 780 126 731 415 1399 865 1995 140 185 230 290 402 464 778 787 1770 1252
2892 1356 152 14 764 4 910 -14z"/>
<path d="M1917 7648 c-4 -62 -10 -183 -13 -269 l-7 -156 116 -30 c63 -17 199
-53 302 -79 156 -41 189 -52 195 -70 5 -11 13 -63 19 -115 40 -349 55 -1018
48 -2209 -6 -965 -13 -1249 -42 -1530 -23 -227 15 -191 -311 -287 -153 -45
-290 -85 -303 -88 l-24 -6 7 -152 c3 -84 9 -205 13 -270 l6 -117 1419 0 c1203
0 1418 2 1418 14 0 23 19 365 25 447 l5 76 -289 88 c-171 52 -292 94 -295 102
-27 70 -66 942 -66 1494 l0 166 53 6 c159 18 609 29 992 24 382 -6 691 -20
703 -32 7 -6 -16 -1046 -28 -1260 -10 -186 -27 -376 -36 -398 -2 -7 -135 -53
-295 -102 l-291 -89 6 -75 c3 -42 8 -128 11 -191 3 -63 8 -150 11 -192 l6 -78
1417 0 1418 0 13 265 c7 146 11 268 8 270 -2 3 -137 43 -299 91 -162 47 -297
88 -301 92 -13 14 -50 579 -68 1042 -13 341 -13 1645 0 1995 17 462 54 1023
68 1036 4 4 140 41 302 83 162 42 296 79 298 81 3 2 -1 124 -8 270 l-13 265
-1418 0 -1417 0 -6 -77 c-3 -43 -8 -130 -11 -193 -3 -63 -8 -149 -11 -191 l-6
-75 291 -80 c201 -54 293 -83 296 -94 23 -76 42 -450 56 -1084 9 -402 8 -510
-2 -516 -35 -22 -1311 -32 -1614 -13 l-120 8 2 360 c4 523 27 1075 51 1217 l7
41 290 80 c160 43 291 80 292 81 1 0 -5 114 -13 251 -7 138 -14 258 -14 268 0
16 -74 17 -1418 17 l-1419 0 -6 -112z"/>
</g>
</svg>
